<?xml version="1.0" encoding="UTF-8"?>
<svg id="Layer_2" data-name="Layer 2" xmlns="http://www.w3.org/2000/svg" version="1.1" viewBox="0 0 348.7 160.9">
  <defs>
    <style>
      .cls-1 {
        fill: #efea3b;
      }

      .cls-1, .cls-2, .cls-3 {
        stroke-width: 0px;
      }

      .cls-2 {
        fill: none;
      }

      .cls-3 {
        fill: #71ba2c;
      }
    </style>
  </defs>
  <g id="_레이어_1" data-name=" 레이어 1">
    <g>
      <rect class="cls-2" width="348.7" height="160.9"/>
      <g>
        <path class="cls-3" d="M44.1,111.7c-3.3,0-6.3-.5-9-1.5-2.7-1-5.1-2.5-7-4.4-2-1.9-3.5-4.3-4.6-7.1-1.1-2.7-1.6-5.8-1.6-9.3s.6-6.7,1.7-9.5c1.1-2.8,2.7-5.2,4.8-7.1,2-1.9,4.4-3.3,7.1-4.3,2.7-1,5.6-1.5,8.8-1.5s4.1.2,6.2.5c2.2.3,3.8.8,5.1,1.4,1.4.6,1.8,1.5,2,2.2.2.8,0,1.9-.8,3.6-.7,1.8-1.3,2.7-2.1,3.1-.4.3-.9.4-1.5.4s-.9,0-1.3-.3c-.9-.2-2.1-.4-3.5-.7-1.5-.2-2.8-.3-4.1-.3s-3.4.3-4.7.9-2.5,1.5-3.5,2.6c-1,1.1-1.7,2.4-2.2,3.9-.5,1.5-.8,3.2-.8,4.9s.2,3.4.8,5c.5,1.5,1.2,2.8,2.2,3.9.9,1.1,2.1,2,3.5,2.6,1.4.6,3,.9,4.7.9s3.2-.1,4.7-.4c1.6-.3,3-.6,4.2-1,.4-.1.8-.2,1.2-.2s1,.1,1.5.3c.8.4,1.5,1.4,2.2,3.2.3.9.5,1.5.6,2,.2.7.2,1.2,0,1.7-.1.6-.4,1.1-.8,1.4-.3.2-.6.4-1,.7-.6.4-1.5.7-2.7,1-1,.3-2.1.5-3.3.7-1.2.2-2.3.3-3.5.4-1.2,0-2.3.2-3.3.2h0Z"/>
        <path class="cls-3" d="M76.6,111.7c-4.8,0-8.5-1.4-11.3-4.3-2.7-2.8-4.1-6.8-4.1-11.7v-27.6h11.2v28.6c0,1.1.2,1.9.5,2.5.3.6.8,1.1,1.3,1.5.6.4,1.3.7,2.2.8.9.2,1.9.3,3,.3s2,0,3-.3c.9-.2,1.7-.5,2.4-.8.7-.3,1.2-.7,1.6-1.1.2-.3.4-.5.4-.9v-30.6h11.2v40.1c0,1.3-.7,2.3-2,2.8-.9.3-2,.5-3.3.5-3.4,0-4.8-1-5.2-2.1-.9.5-2,.9-3.2,1.3-2.3.7-4.8,1.1-7.5,1.1h0Z"/>
        <path class="cls-3" d="M161.8,112.5c-1.4,0-2.9-.1-4.4-.4-1.5-.3-2.9-.6-4.2-.9-1.3-.4-2.5-.8-3.5-1.2-1.1-.5-1.8-.8-2.3-1.1-.8-.5-1.3-1.1-1.6-1.8-.3-.8-.2-1.8.4-3.6.5-1.6,1.1-2.7,1.9-3.2.5-.4,1.1-.5,1.7-.5s.9,0,1.3.3c1.7.7,3.6,1.3,5.5,1.8,1.9.5,3.6.7,5.1.7,2.4,0,4.3-.4,5.8-1.2,1.2-.7,1.8-1.6,1.8-2.8s0-.8-.3-1.1c-.2-.3-.6-.7-1.1-1.1-.6-.4-1.5-.9-2.5-1.3-1.1-.5-2.5-1-4.1-1.6-1.3-.4-2.8-1-4.3-1.6-1.6-.7-3.2-1.5-4.6-2.5-1.5-1.1-2.7-2.4-3.7-3.9-1.1-1.6-1.6-3.6-1.6-5.9s.5-4.2,1.4-5.8c.9-1.7,2.1-3.1,3.6-4.2,1.5-1.1,3.3-1.9,5.3-2.5,2-.5,4.1-.8,6.3-.8s2.8.1,4.1.4c1.3.2,2.5.5,3.6.8,1.1.3,2.1.7,3,1,.9.4,1.6.7,2,1.1.3.2.6.4.8.6.4.3.7.8.8,1.3.1.4.2,1,0,1.6,0,.6-.2,1.2-.5,2-.6,1.7-1.2,2.6-2,3.1-.5.3-1,.5-1.6.5s-.9,0-1.3-.3l-2.4-.9c-.7-.3-1.4-.5-2.1-.7s-1.4-.3-2.1-.4c-.7,0-1.5-.1-2.4-.1s-1.5,0-2.2.3c-.7.2-1.3.4-1.8.7-.5.3-.8.7-1.1,1.1-.2.4-.4.9-.4,1.5s.1,1,.4,1.3c.3.4.7.8,1.3,1.2.7.4,1.6.9,2.6,1.3,1.1.4,2.3.9,3.7,1.4l5.1,2c1.7.7,3.3,1.5,4.6,2.5,1.4,1,2.5,2.2,3.4,3.7.9,1.5,1.3,3.3,1.3,5.3s-.5,3.9-1.4,5.7c-.9,1.7-2.2,3.2-3.8,4.5-1.6,1.2-3.6,2.2-5.9,2.9-2.2.7-4.8,1-7.6,1h0Z"/>
        <path class="cls-3" d="M215.3,111.4c-1.4,0-2.6-.2-3.5-.4-1.4-.5-2.1-1.5-2.1-2.8v-26.1c0-1.7-.6-2.9-2-3.7-1.5-1-3.5-1.4-5.8-1.4s-1.9.1-2.9.4c-1,.3-1.9.6-2.6,1-.7.4-1.3.8-1.7,1.3-.3.3-.4.7-.4.9v27.6c0,1.3-.8,2.3-2.1,2.8-.9.3-2,.4-3.4.4s-2.6-.2-3.5-.4c-1.4-.5-2.1-1.5-2.1-2.8v-57.2h11.2v18.8c.8-.5,1.8-1,2.8-1.3,1.2-.4,2.4-.8,3.7-1,1.3-.3,2.7-.4,4.1-.4,2.5,0,4.8.4,6.7,1.3,1.9.8,3.6,2,5,3.5,1.4,1.5,2.4,3.2,3.2,5.1.7,1.9,1.1,3.9,1.1,6.1v25.2c0,1.3-.8,2.3-2.1,2.8-.9.3-2,.4-3.4.4h0Z"/>
        <path class="cls-3" d="M232.4,111.4c-.7,0-1.4,0-1.9-.1s-1.1-.2-1.6-.3c-.7-.2-1.2-.6-1.6-1.1s-.6-1.1-.6-1.7v-44s1.7,2,5.6,2,5.6-2,5.6-2v43.9c0,.7-.2,1.2-.6,1.7s-.9.8-1.6,1.1c-.4.2-.9.3-1.5.3s-1.2.1-1.9.1h0Z"/>
        <path class="cls-1" d="M232.4,63.9c-1.9,0-3.5-.7-4.8-2-1.3-1.3-2-2.9-2-4.8s.7-3.5,2-4.8c1.3-1.3,2.9-2,4.8-2s3.5.7,4.8,2,2,2.9,2,4.8-.7,3.5-2,4.8c-1.3,1.3-2.9,2-4.9,2h0Z"/>
        <path class="cls-3" d="M264.3,111.7c-3.4,0-6.5-.6-9.1-1.7s-5-2.8-6.8-4.8c-1.9-2-3.3-4.4-4.3-7.1-1-2.7-1.5-5.6-1.5-8.7s.5-6,1.5-8.6c1-2.7,2.4-5.1,4.3-7.1,1.9-2,4.2-3.7,6.8-4.9,2.7-1.2,5.7-1.8,9.1-1.8s6.5.6,9.1,1.8c2.7,1.2,5,2.8,6.9,4.8,1.9,2,3.3,4.4,4.3,7.1,1,2.7,1.5,5.6,1.5,8.6s-.5,6-1.5,8.7c-1,2.7-2.4,5.1-4.3,7.1s-4.2,3.6-6.9,4.8c-2.7,1.2-5.7,1.7-9.1,1.7h0ZM264.3,76.9c-1.6,0-3.1.3-4.4,1-1.3.7-2.4,1.5-3.3,2.6-.9,1.1-1.6,2.4-2.1,3.9-.5,1.5-.8,3.2-.8,4.9s.2,3.4.8,4.9c.5,1.5,1.2,2.8,2.1,4,.9,1.1,2,2,3.3,2.6,1.3.6,2.8.9,4.4.9s3.1-.3,4.4-.9,2.4-1.5,3.3-2.6c.9-1.1,1.6-2.4,2.1-4,.5-1.5.8-3.2.8-4.9s-.2-3.4-.8-4.9c-.5-1.5-1.2-2.8-2.1-3.9-.9-1.1-2-2-3.3-2.6-1.3-.6-2.8-1-4.4-1h0Z"/>
        <path class="cls-3" d="M321.3,111.4c-1.4,0-2.6-.2-3.5-.4-1.4-.5-2.1-1.5-2.1-2.8v-25.8c0-.9-.2-1.7-.6-2.3-.4-.7-.9-1.2-1.6-1.7-.7-.5-1.5-.8-2.4-1-1-.2-2-.3-3-.3s-2,.1-2.9.4-1.8.6-2.5,1.1c-.7.4-1.2.8-1.6,1.3-.3.4-.4.7-.4,1v27.4c0,1.3-.8,2.3-2.1,2.8-.9.3-2,.4-3.4.4s-2.6-.2-3.5-.4c-1.4-.5-2.1-1.5-2.1-2.8v-40.1h10.9v2c.7-.5,1.4-.9,2.3-1.3,1.1-.5,2.4-1,3.8-1.3,1.4-.3,3-.5,4.6-.5s4.4.4,6.3,1.2c1.9.8,3.6,1.9,5,3.4s2.5,3.2,3.3,5.2c.8,2,1.1,4.1,1.1,6.5v25c0,1.3-.8,2.3-2.1,2.8-.9.3-2,.4-3.4.4h0Z"/>
        <path class="cls-1" d="M123.3,111.4c-4.5,0-5.2-2.1-5.2-3.3v-30.9h-13.2v-10.3h13.2v-12.9h10.4v12.9h10.3c1.3,0,3.4.7,3.4,5.2s-2.1,5.1-3.4,5.1h-10.3v30.9c0,1.5-.9,3.3-5.2,3.3Z"/>
      </g>
      <path class="cls-1" d="M216.5,44.5c-1.4,0-2.5-.5-3.5-1.5-.9-1-1.4-2.1-1.4-3.5s.5-2.5,1.4-3.5,2.1-1.4,3.4-1.4,2.6.5,3.5,1.4,1.4,2.1,1.4,3.5-.5,2.5-1.4,3.5c-.9,1-2.1,1.5-3.5,1.5h0Z"/>
      <path class="cls-1" d="M247.9,44.5c-2.3,0-4.3-.8-5.9-2.5-1.6-1.7-2.4-3.7-2.4-6s.8-4.3,2.5-5.9c1.6-1.6,3.6-2.5,5.9-2.5s4.4.8,6,2.5c1.6,1.6,2.5,3.6,2.5,5.9s-.8,4.3-2.4,6c-1.6,1.7-3.7,2.5-6,2.5h0Z"/>
      <path class="cls-1" d="M197.7,32.5c-1.1,0-2.1-.4-2.9-1.2-.8-.8-1.2-1.8-1.2-3s.4-2.1,1.2-2.9,1.8-1.2,2.9-1.2,2.2.4,3,1.2c.8.8,1.2,1.8,1.2,2.9s-.4,2.1-1.2,3c-.8.8-1.8,1.2-3,1.2h0Z"/>
      <path class="cls-1" d="M277.3,27.5c-3.2,0-5.9-1.2-8.1-3.4-2.2-2.3-3.3-5-3.3-8.1s1.1-5.9,3.4-8.1c2.2-2.2,4.9-3.3,8.1-3.3s6,1.1,8.2,3.3c2.2,2.2,3.4,4.9,3.4,8.1s-1.1,5.9-3.3,8.1c-2.2,2.3-5,3.4-8.2,3.4h0Z"/>
    </g>
  </g>
</svg>