<?xml version="1.0" encoding="UTF-8"?>
<svg id="Layer_2" data-name="Layer 2" xmlns="http://www.w3.org/2000/svg" viewBox="0 0 111.9 111.9">
  <defs>
    <style>
      .cls-1 {
        fill: #34b8bb;
        stroke-width: 0px;
      }
    </style>
  </defs>
  <g id="_레이어_1" data-name="레이어 1">
    <path class="cls-1" d="M107.37,66.94l-40.43,40.43c-6.04,6.04-15.93,6.04-21.98,0L4.53,66.94c-6.04-6.04-6.05-15.93,0-21.98L44.97,4.53c6.04-6.04,15.93-6.04,21.98,0l40.43,40.43c6.04,6.04,6.04,15.94,0,21.98M78.49,51.67c-.87-1.6-1.46-3.3-1.92-6.28-1.29-8.38-6-12.55-14.47-12.53l-11.28-.02c-14.84,0-18.46,10.74-18.46,19.32v5.31c0,4.61,1.19,8.56,2.5,11.08,2.63,5.1,3.78,8.19,3.78,10.57v12.2h15.78v-8.44c-.04-3.11.49-4.44,3.87-4.64l4.67.05c12.15-.29,14.68-4.12,14.93-10.19l.17-4.19c-.06-1.41.52-1.65,1.41-1.83l2.18-.85c.9-.25,1.28-.92.64-2.17l-3.8-7.38ZM57.88,67.7c3.46,0,6.37-2.8,6.37-6.37v-12c0-3.42-2.73-6.37-6.37-6.37h-3.86c-3.18,0-6.37,3.06-6.37,6.37v12c0,3.27,3.19,6.37,6.37,6.37h3.86Z"/>
  </g>
</svg>